<?xml version="1.0" encoding="UTF-8" standalone="no"?>
<!DOCTYPE svg PUBLIC "-//W3C//DTD SVG 1.1//EN"
 "http://www.w3.org/Graphics/SVG/1.1/DTD/svg11.dtd">
<!-- Generated by graphviz version 2.43.0 (0)
 -->
<!-- Title: build_waves Pages: 1 -->
<svg width="1574pt" height="406pt"
 viewBox="0.00 0.00 1573.60 405.60" xmlns="http://www.w3.org/2000/svg" xmlns:xlink="http://www.w3.org/1999/xlink">
<g id="graph0" class="graph" transform="scale(1 1) rotate(0) translate(28.8 376.8)">
<title>build_waves</title>
<polygon fill="white" stroke="transparent" points="-28.8,28.8 -28.8,-376.8 1544.8,-376.8 1544.8,28.8 -28.8,28.8"/>
<text text-anchor="start" x="621" y="-336.2" font-family="Helvetica,sans-Serif" font-weight="bold" font-size="11.00">Trax IO v1 Build Waves &amp; Dependency Graph</text>
<text text-anchor="start" x="592" y="-325.2" font-family="Helvetica,sans-Serif" font-style="italic" font-size="11.00">10 sub&#45;projects, 4 waves, 7 months to first production write</text>
<g id="clust1" class="cluster">
<title>cluster_w0</title>
<path fill="#e8f5e9" stroke="#2e7d32" d="M20,-50C20,-50 296.5,-50 296.5,-50 302.5,-50 308.5,-56 308.5,-62 308.5,-62 308.5,-164 308.5,-164 308.5,-170 302.5,-176 296.5,-176 296.5,-176 20,-176 20,-176 14,-176 8,-170 8,-164 8,-164 8,-62 8,-62 8,-56 14,-50 20,-50"/>
<text text-anchor="start" x="52.25" y="-164.2" font-family="Helvetica,sans-Serif" font-weight="bold" font-size="11.00">WAVE 0 — Foundation (weeks 0–6)</text>
</g>
<g id="clust2" class="cluster">
<title>cluster_w1</title>
<path fill="#e3f2fd" stroke="#1565c0" d="M200,-184C200,-184 649,-184 649,-184 655,-184 661,-190 661,-196 661,-196 661,-298 661,-298 661,-304 655,-310 649,-310 649,-310 200,-310 200,-310 194,-310 188,-304 188,-298 188,-298 188,-196 188,-196 188,-190 194,-184 200,-184"/>
<text text-anchor="start" x="287.5" y="-298.2" font-family="Helvetica,sans-Serif" font-weight="bold" font-size="11.00">WAVE 1 — Core agent + writes (weeks 6–16)</text>
</g>
<g id="clust3" class="cluster">
<title>cluster_w2</title>
<path fill="#fff3e0" stroke="#e65100" d="M694,-46C694,-46 969,-46 969,-46 975,-46 981,-52 981,-58 981,-58 981,-160 981,-160 981,-166 975,-172 969,-172 969,-172 694,-172 694,-172 688,-172 682,-166 682,-160 682,-160 682,-58 682,-58 682,-52 688,-46 694,-46"/>
<text text-anchor="start" x="690" y="-160.2" font-family="Helvetica,sans-Serif" font-weight="bold" font-size="11.00">WAVE 2 — UI + value reporting (weeks 12–20)</text>
</g>
<g id="clust4" class="cluster">
<title>cluster_w3</title>
<path fill="#fce4ec" stroke="#ad1457" d="M1014,-100C1014,-100 1208,-100 1208,-100 1214,-100 1220,-106 1220,-112 1220,-112 1220,-160 1220,-160 1220,-166 1214,-172 1208,-172 1208,-172 1014,-172 1014,-172 1008,-172 1002,-166 1002,-160 1002,-160 1002,-112 1002,-112 1002,-106 1008,-100 1014,-100"/>
<text text-anchor="start" x="1010" y="-160.2" font-family="Helvetica,sans-Serif" font-weight="bold" font-size="11.00">WAVE 3 — Go&#45;live (weeks 20–24)</text>
</g>
<g id="clust5" class="cluster">
<title>cluster_milestones</title>
<path fill="#fffde7" stroke="#f9a825" d="M1253,-8C1253,-8 1496,-8 1496,-8 1502,-8 1508,-14 1508,-20 1508,-20 1508,-133 1508,-133 1508,-139 1502,-145 1496,-145 1496,-145 1253,-145 1253,-145 1247,-145 1241,-139 1241,-133 1241,-133 1241,-20 1241,-20 1241,-14 1247,-8 1253,-8"/>
<text text-anchor="start" x="1305" y="-133.2" font-family="Helvetica,sans-Serif" font-weight="bold" font-size="11.00">Lighthouse milestones</text>
</g>
<!-- S1 -->
<g id="node1" class="node">
<title>S1</title>
<path fill="#c8e6c9" stroke="#455a64" d="M141,-94C141,-94 34,-94 34,-94 28,-94 22,-88 22,-82 22,-82 22,-70 22,-70 22,-64 28,-58 34,-58 34,-58 141,-58 141,-58 147,-58 153,-64 153,-70 153,-70 153,-82 153,-82 153,-88 147,-94 141,-94"/>
<text text-anchor="middle" x="87.5" y="-79" font-family="Helvetica,sans-Serif" font-size="10.00">#1 Extract Utility</text>
<text text-anchor="middle" x="87.5" y="-68" font-family="Helvetica,sans-Serif" font-size="10.00">eMRO team + Platform</text>
</g>
<!-- S2 -->
<g id="node2" class="node">
<title>S2</title>
<path fill="#c8e6c9" stroke="#455a64" d="M288.5,-94C288.5,-94 213.5,-94 213.5,-94 207.5,-94 201.5,-88 201.5,-82 201.5,-82 201.5,-70 201.5,-70 201.5,-64 207.5,-58 213.5,-58 213.5,-58 288.5,-58 288.5,-58 294.5,-58 300.5,-64 300.5,-70 300.5,-70 300.5,-82 300.5,-82 300.5,-88 294.5,-94 288.5,-94"/>
<text text-anchor="middle" x="251" y="-79" font-family="Helvetica,sans-Serif" font-size="10.00">#2 Feature Store</text>
<text text-anchor="middle" x="251" y="-68" font-family="Helvetica,sans-Serif" font-size="10.00">Data platform</text>
</g>
<!-- S1&#45;&gt;S2 -->
<g id="edge1" class="edge">
<title>S1&#45;&gt;S2</title>
<path fill="none" stroke="#546e7a" d="M153.26,-76C165.74,-76 178.74,-76 191.03,-76"/>
<polygon fill="#546e7a" stroke="#546e7a" points="191.14,-79.5 201.14,-76 191.14,-72.5 191.14,-79.5"/>
</g>
<!-- S4 -->
<g id="node4" class="node">
<title>S4</title>
<path fill="#bbdefb" stroke="#455a64" d="M470,-228C470,-228 402,-228 402,-228 396,-228 390,-222 390,-216 390,-216 390,-204 390,-204 390,-198 396,-192 402,-192 402,-192 470,-192 470,-192 476,-192 482,-198 482,-204 482,-204 482,-216 482,-216 482,-222 476,-228 470,-228"/>
<text text-anchor="middle" x="436" y="-213" font-family="Helvetica,sans-Serif" font-size="10.00">#4 Agent Spine</text>
<text text-anchor="middle" x="436" y="-202" font-family="Helvetica,sans-Serif" font-size="10.00">AI platform</text>
</g>
<!-- S2&#45;&gt;S4 -->
<g id="edge2" class="edge">
<title>S2&#45;&gt;S4</title>
<path fill="none" stroke="#546e7a" d="M276.68,-94.07C309.01,-117.75 365.83,-159.35 401.88,-185.75"/>
<polygon fill="#546e7a" stroke="#546e7a" points="399.99,-188.7 410.13,-191.79 404.13,-183.05 399.99,-188.7"/>
</g>
<!-- S8 -->
<g id="node9" class="node">
<title>S8</title>
<path fill="#ffe0b2" stroke="#455a64" d="M891,-90C891,-90 772,-90 772,-90 766,-90 760,-84 760,-78 760,-78 760,-66 760,-66 760,-60 766,-54 772,-54 772,-54 891,-54 891,-54 897,-54 903,-60 903,-66 903,-66 903,-78 903,-78 903,-84 897,-90 891,-90"/>
<text text-anchor="middle" x="831.5" y="-75" font-family="Helvetica,sans-Serif" font-size="10.00">#8 Business Value Report</text>
<text text-anchor="middle" x="831.5" y="-64" font-family="Helvetica,sans-Serif" font-size="10.00">ML engineering</text>
</g>
<!-- S2&#45;&gt;S8 -->
<g id="edge3" class="edge">
<title>S2&#45;&gt;S8</title>
<path fill="none" stroke="#546e7a" d="M300.82,-75.66C400.45,-74.97 628,-73.4 749.89,-72.56"/>
<polygon fill="#546e7a" stroke="#546e7a" points="749.94,-76.06 759.92,-72.49 749.89,-69.06 749.94,-76.06"/>
</g>
<!-- S9 -->
<g id="node3" class="node">
<title>S9</title>
<path fill="#c8e6c9" stroke="#455a64" d="M147,-148C147,-148 28,-148 28,-148 22,-148 16,-142 16,-136 16,-136 16,-124 16,-124 16,-118 22,-112 28,-112 28,-112 147,-112 147,-112 153,-112 159,-118 159,-124 159,-124 159,-136 159,-136 159,-142 153,-148 147,-148"/>
<text text-anchor="middle" x="87.5" y="-133" font-family="Helvetica,sans-Serif" font-size="10.00">#9 Observability + SOC 2</text>
<text text-anchor="middle" x="87.5" y="-122" font-family="Helvetica,sans-Serif" font-size="10.00">Platform + SecOps</text>
</g>
<!-- S9&#45;&gt;S4 -->
<g id="edge13" class="edge">
<title>S9&#45;&gt;S4</title>
<path fill="none" stroke="#546e7a" stroke-dasharray="1,5" d="M98.79,-148.3C114.31,-173.78 146.37,-218.86 188,-237 262.98,-269.67 291.93,-250.7 372,-234 375.82,-233.2 379.72,-232.21 383.6,-231.07"/>
<polygon fill="#546e7a" stroke="#546e7a" points="384.72,-234.39 393.19,-228.02 382.6,-227.72 384.72,-234.39"/>
<text text-anchor="middle" x="251" y="-266.8" font-family="Helvetica,sans-Serif" font-size="9.00">parallel</text>
<text text-anchor="middle" x="251" y="-256.8" font-family="Helvetica,sans-Serif" font-size="9.00">observability</text>
</g>
<!-- S6 -->
<g id="node7" class="node">
<title>S6</title>
<path fill="#bbdefb" stroke="#455a64" d="M629.5,-228C629.5,-228 542.5,-228 542.5,-228 536.5,-228 530.5,-222 530.5,-216 530.5,-216 530.5,-204 530.5,-204 530.5,-198 536.5,-192 542.5,-192 542.5,-192 629.5,-192 629.5,-192 635.5,-192 641.5,-198 641.5,-204 641.5,-204 641.5,-216 641.5,-216 641.5,-222 635.5,-228 629.5,-228"/>
<text text-anchor="middle" x="586" y="-213" font-family="Helvetica,sans-Serif" font-size="10.00">#6 Writeback REST</text>
<text text-anchor="middle" x="586" y="-202" font-family="Helvetica,sans-Serif" font-size="10.00">eMRO team</text>
</g>
<!-- S9&#45;&gt;S6 -->
<g id="edge14" class="edge">
<title>S9&#45;&gt;S6</title>
<path fill="none" stroke="#546e7a" stroke-dasharray="1,5" d="M94.3,-148.14C105.95,-181.14 135.67,-250.12 188,-278 244.54,-308.12 423.48,-260.3 520.67,-230.67"/>
<polygon fill="#546e7a" stroke="#546e7a" points="521.86,-233.97 530.39,-227.69 519.8,-227.28 521.86,-233.97"/>
</g>
<!-- SOC -->
<g id="node12" class="node">
<title>SOC</title>
<polygon fill="#fff59d" stroke="#455a64" points="1335,-57.5 1249,-57.5 1249,-16.5 1341,-16.5 1341,-51.5 1335,-57.5"/>
<polyline fill="none" stroke="#455a64" points="1335,-57.5 1335,-51.5 "/>
<polyline fill="none" stroke="#455a64" points="1341,-51.5 1335,-51.5 "/>
<text text-anchor="middle" x="1295" y="-45.5" font-family="Helvetica,sans-Serif" font-size="10.00">SOC 2 Type II</text>
<text text-anchor="middle" x="1295" y="-34.5" font-family="Helvetica,sans-Serif" font-size="10.00">first attestation</text>
<text text-anchor="middle" x="1295" y="-23.5" font-family="Helvetica,sans-Serif" font-size="10.00">week 26</text>
</g>
<!-- S9&#45;&gt;SOC -->
<g id="edge16" class="edge">
<title>S9&#45;&gt;SOC</title>
<path fill="none" stroke="#546e7a" d="M146.32,-111.97C150.86,-109.35 155.16,-106.38 159,-103 179.45,-85 167.46,-66.89 188,-49 210.16,-29.7 220.61,-26 250,-26 250,-26 250,-26 1111.5,-26 1154.11,-26 1202.22,-29.03 1238.34,-31.9"/>
<polygon fill="#546e7a" stroke="#546e7a" points="1238.42,-35.42 1248.67,-32.75 1238.99,-28.44 1238.42,-35.42"/>
</g>
<!-- S5 -->
<g id="node5" class="node">
<title>S5</title>
<path fill="#bbdefb" stroke="#455a64" d="M641,-282C641,-282 531,-282 531,-282 525,-282 519,-276 519,-270 519,-270 519,-258 519,-258 519,-252 525,-246 531,-246 531,-246 641,-246 641,-246 647,-246 653,-252 653,-258 653,-258 653,-270 653,-270 653,-276 647,-282 641,-282"/>
<text text-anchor="middle" x="586" y="-267" font-family="Helvetica,sans-Serif" font-size="10.00">#5 Forecasting + Policy</text>
<text text-anchor="middle" x="586" y="-256" font-family="Helvetica,sans-Serif" font-size="10.00">ML engineering</text>
</g>
<!-- S4&#45;&gt;S5 -->
<g id="edge4" class="edge">
<title>S4&#45;&gt;S5</title>
<path fill="none" stroke="#546e7a" d="M482.21,-226.5C496.02,-231.53 511.41,-237.15 525.99,-242.47"/>
<polygon fill="#546e7a" stroke="#546e7a" points="524.83,-245.77 535.43,-245.91 527.23,-239.2 524.83,-245.77"/>
</g>
<!-- S4&#45;&gt;S6 -->
<g id="edge5" class="edge">
<title>S4&#45;&gt;S6</title>
<path fill="none" stroke="#546e7a" d="M482.21,-210C494.22,-210 507.42,-210 520.25,-210"/>
<polygon fill="#546e7a" stroke="#546e7a" points="520.43,-213.5 530.43,-210 520.43,-206.5 520.43,-213.5"/>
</g>
<!-- S7 -->
<g id="node8" class="node">
<title>S7</title>
<path fill="#ffe0b2" stroke="#455a64" d="M861.5,-144C861.5,-144 801.5,-144 801.5,-144 795.5,-144 789.5,-138 789.5,-132 789.5,-132 789.5,-120 789.5,-120 789.5,-114 795.5,-108 801.5,-108 801.5,-108 861.5,-108 861.5,-108 867.5,-108 873.5,-114 873.5,-120 873.5,-120 873.5,-132 873.5,-132 873.5,-138 867.5,-144 861.5,-144"/>
<text text-anchor="middle" x="831.5" y="-129" font-family="Helvetica,sans-Serif" font-size="10.00">#7 Planner UI</text>
<text text-anchor="middle" x="831.5" y="-118" font-family="Helvetica,sans-Serif" font-size="10.00">eMRO team</text>
</g>
<!-- S4&#45;&gt;S7 -->
<g id="edge8" class="edge">
<title>S4&#45;&gt;S7</title>
<path fill="none" stroke="#546e7a" d="M450.26,-191.81C461.7,-177.69 479.56,-159.05 500,-150 591.75,-109.38 711.9,-112.97 779.15,-119.38"/>
<polygon fill="#546e7a" stroke="#546e7a" points="779.18,-122.9 789.48,-120.43 779.89,-115.94 779.18,-122.9"/>
</g>
<!-- S10 -->
<g id="node10" class="node">
<title>S10</title>
<path fill="#f8bbd0" stroke="#455a64" d="M1164,-144C1164,-144 1057,-144 1057,-144 1051,-144 1045,-138 1045,-132 1045,-132 1045,-120 1045,-120 1045,-114 1051,-108 1057,-108 1057,-108 1164,-108 1164,-108 1170,-108 1176,-114 1176,-120 1176,-120 1176,-132 1176,-132 1176,-138 1170,-144 1164,-144"/>
<text text-anchor="middle" x="1110.5" y="-129" font-family="Helvetica,sans-Serif" font-size="10.00">#10 Tenant Onboarding</text>
<text text-anchor="middle" x="1110.5" y="-118" font-family="Helvetica,sans-Serif" font-size="10.00">Customer Success</text>
</g>
<!-- S4&#45;&gt;S10 -->
<g id="edge9" class="edge">
<title>S4&#45;&gt;S10</title>
<path fill="none" stroke="#546e7a" d="M482.35,-192.36C494.11,-188.54 506.88,-185.04 519,-183 620.26,-165.97 880.23,-195.71 981,-176 1009.62,-170.4 1040.1,-158.81 1064.19,-148.19"/>
<polygon fill="#546e7a" stroke="#546e7a" points="1065.75,-151.33 1073.43,-144.04 1062.87,-144.95 1065.75,-151.33"/>
</g>
<!-- S5&#45;&gt;S10 -->
<g id="edge10" class="edge">
<title>S5&#45;&gt;S10</title>
<path fill="none" stroke="#546e7a" d="M653.05,-262.98C735.11,-259.77 878.2,-247.69 992,-204 1024.98,-191.34 1058.11,-168.17 1080.74,-150.37"/>
<polygon fill="#546e7a" stroke="#546e7a" points="1082.97,-153.06 1088.59,-144.08 1078.59,-147.6 1082.97,-153.06"/>
</g>
<!-- S3 -->
<g id="node6" class="node">
<title>S3</title>
<path fill="#bbdefb" stroke="#455a64" d="M294,-228C294,-228 208,-228 208,-228 202,-228 196,-222 196,-216 196,-216 196,-204 196,-204 196,-198 202,-192 208,-192 208,-192 294,-192 294,-192 300,-192 306,-198 306,-204 306,-204 306,-216 306,-216 306,-222 300,-228 294,-228"/>
<text text-anchor="middle" x="251" y="-213" font-family="Helvetica,sans-Serif" font-size="10.00">#3 Event Publisher</text>
<text text-anchor="middle" x="251" y="-202" font-family="Helvetica,sans-Serif" font-size="10.00">eMRO team</text>
</g>
<!-- S3&#45;&gt;S4 -->
<g id="edge6" class="edge">
<title>S3&#45;&gt;S4</title>
<path fill="none" stroke="#546e7a" stroke-dasharray="5,2" d="M306.41,-210C329.54,-210 356.47,-210 379.7,-210"/>
<polygon fill="#546e7a" stroke="#546e7a" points="379.74,-213.5 389.74,-210 379.74,-206.5 379.74,-213.5"/>
<text text-anchor="middle" x="348" y="-222.8" font-family="Helvetica,sans-Serif" font-size="9.00">event lane</text>
<text text-anchor="middle" x="348" y="-212.8" font-family="Helvetica,sans-Serif" font-size="9.00">(P1)</text>
</g>
<!-- S6&#45;&gt;S7 -->
<g id="edge7" class="edge">
<title>S6&#45;&gt;S7</title>
<path fill="none" stroke="#546e7a" d="M639.24,-191.98C680.77,-177.65 738.52,-157.73 779.67,-143.53"/>
<polygon fill="#546e7a" stroke="#546e7a" points="780.92,-146.8 789.24,-140.23 778.64,-140.19 780.92,-146.8"/>
</g>
<!-- S7&#45;&gt;S10 -->
<g id="edge11" class="edge">
<title>S7&#45;&gt;S10</title>
<path fill="none" stroke="#546e7a" d="M873.67,-126C916.06,-126 983.04,-126 1034.8,-126"/>
<polygon fill="#546e7a" stroke="#546e7a" points="1034.94,-129.5 1044.94,-126 1034.94,-122.5 1034.94,-129.5"/>
</g>
<!-- S8&#45;&gt;S10 -->
<g id="edge12" class="edge">
<title>S8&#45;&gt;S10</title>
<path fill="none" stroke="#546e7a" d="M903.2,-84.45C927.85,-88.9 955.67,-94.04 981,-99 998.39,-102.41 1017.07,-106.24 1034.65,-109.91"/>
<polygon fill="#546e7a" stroke="#546e7a" points="1034.35,-113.43 1044.86,-112.06 1035.79,-106.58 1034.35,-113.43"/>
</g>
<!-- LH -->
<g id="node11" class="node">
<title>LH</title>
<polygon fill="#fff59d" stroke="#455a64" points="1335,-116.5 1249,-116.5 1249,-75.5 1341,-75.5 1341,-110.5 1335,-116.5"/>
<polyline fill="none" stroke="#455a64" points="1335,-116.5 1335,-110.5 "/>
<polyline fill="none" stroke="#455a64" points="1341,-110.5 1335,-110.5 "/>
<text text-anchor="middle" x="1295" y="-104.5" font-family="Helvetica,sans-Serif" font-size="10.00">First production</text>
<text text-anchor="middle" x="1295" y="-93.5" font-family="Helvetica,sans-Serif" font-size="10.00">Tier B/C write</text>
<text text-anchor="middle" x="1295" y="-82.5" font-family="Helvetica,sans-Serif" font-size="10.00">week 24</text>
</g>
<!-- S10&#45;&gt;LH -->
<g id="edge15" class="edge">
<title>S10&#45;&gt;LH</title>
<path fill="none" stroke="#546e7a" d="M1176.1,-115.38C1196.62,-112.01 1219.11,-108.31 1238.9,-105.06"/>
<polygon fill="#546e7a" stroke="#546e7a" points="1239.67,-108.48 1248.97,-103.4 1238.54,-101.57 1239.67,-108.48"/>
</g>
<!-- T2 -->
<g id="node13" class="node">
<title>T2</title>
<polygon fill="#fff59d" stroke="#455a64" points="1494,-114 1378,-114 1378,-78 1500,-78 1500,-108 1494,-114"/>
<polyline fill="none" stroke="#455a64" points="1494,-114 1494,-108 "/>
<polyline fill="none" stroke="#455a64" points="1500,-108 1494,-108 "/>
<text text-anchor="middle" x="1439" y="-99" font-family="Helvetica,sans-Serif" font-size="10.00">Second tenant signed</text>
<text text-anchor="middle" x="1439" y="-88" font-family="Helvetica,sans-Serif" font-size="10.00">week 28</text>
</g>
<!-- LH&#45;&gt;T2 -->
<g id="edge17" class="edge">
<title>LH&#45;&gt;T2</title>
<path fill="none" stroke="#546e7a" d="M1341.32,-96C1349.75,-96 1358.74,-96 1367.72,-96"/>
<polygon fill="#546e7a" stroke="#546e7a" points="1367.82,-99.5 1377.82,-96 1367.82,-92.5 1367.82,-99.5"/>
</g>
</g>
</svg>
